<svg width="48" height="49" viewBox="0 0 48 49" fill="none" xmlns="http://www.w3.org/2000/svg">
<path fill-rule="evenodd" clip-rule="evenodd" d="M40.0653 16.0291C43.6543 18.8262 45.4228 22.6943 45.4873 27.1486C45.53 30.0977 45.0094 32.9963 43.6735 35.5432C43.0019 36.6869 42.154 37.7522 41.1061 38.7087C37.7226 41.7971 33.1823 42.8921 28.5454 42.9584C23.9086 43.0247 19.3384 42.06 15.8669 39.0696C14.3339 37.749 13.2016 36.1969 12.4019 34.4998C10.6891 34.6021 8.93357 34.1064 7.47716 32.9724L7.47517 32.9708C3.88617 30.1738 2.11768 26.3057 2.05319 21.8514C2.0105 18.9023 2.53135 16.0031 3.86729 13.4562C4.5389 12.3125 5.38645 11.2478 6.43433 10.2913C9.81786 7.20286 14.3582 6.10792 18.995 6.04162C23.6319 5.97532 28.2021 6.93999 31.6736 9.93041C33.2066 11.251 34.3389 12.8031 35.1386 14.5002C36.8513 14.3979 38.6069 14.8936 40.0633 16.0276L40.0653 16.0291ZM9.84064 21.6346C9.84064 23.6982 10.4891 25.1432 11.9445 26.3209C12.5975 26.8495 12.7011 27.8133 12.1728 28.4701C11.6446 29.1269 10.687 29.2293 10.0325 28.6992C7.85555 26.935 6.79603 24.6254 6.79603 21.6346C6.79603 14.3836 10.9002 10.7069 19.0004 10.7069C27.1006 10.7069 31.2062 14.3836 31.2062 21.6346C31.2062 24.6346 30.1467 26.9457 27.9668 28.7008C27.6866 28.9268 27.3502 29.0368 27.0153 29.0368C26.5708 29.0368 26.1278 28.8413 25.8279 28.4655C25.3012 27.8072 25.4062 26.8449 26.0623 26.3179C27.5146 25.1478 28.1631 23.7028 28.1631 21.6346C28.1631 17.741 27.0747 13.7619 19.0019 13.7619C10.9291 13.7619 9.84064 17.7426 9.84064 21.6346ZM34.91 20.4401C35.4382 19.7848 36.3958 19.6794 37.0504 20.211V20.2095C39.2273 21.9737 40.2868 24.2833 40.2868 27.2741C40.2868 34.5251 36.1811 38.2018 28.0809 38.2018C19.9807 38.2018 15.8751 34.5251 15.8751 27.2741C15.8751 24.2741 16.9346 21.963 19.1145 20.2079C19.7691 19.6794 20.7282 19.7833 21.2549 20.4432C21.7816 21.1015 21.6766 22.0638 21.0205 22.5908C19.5682 23.7609 18.9197 25.2059 18.9197 27.2741C18.9197 31.1677 20.0081 35.1468 28.0809 35.1468C36.1537 35.1468 37.2422 31.1661 37.2422 27.2741C37.2422 25.2105 36.5937 23.7654 35.1383 22.5878C34.4853 22.0592 34.3818 21.0969 34.91 20.4401Z" fill="#2C46B1"/>
</svg>